<?xml version="1.0" encoding="UTF-8"?>
<svg id="Layer_2" data-name="Layer 2" xmlns="http://www.w3.org/2000/svg" xmlns:xlink="http://www.w3.org/1999/xlink" viewBox="0 0 81.46 58.64">
  <defs>
    <style>
      .cls-1 {
        fill: none;
      }

      .cls-2 {
        fill: #333088;
      }

      .cls-3 {
        fill: url(#linear-gradient-3);
      }

      .cls-4 {
        fill: url(#linear-gradient-2);
      }

      .cls-5 {
        fill: url(#linear-gradient);
      }

      .cls-6 {
        clip-path: url(#clippath-1);
      }

      .cls-7 {
        clip-path: url(#clippath-2);
      }

      .cls-8 {
        clip-path: url(#clippath);
      }
    </style>
    <clipPath id="clippath">
      <path class="cls-1" d="M16.49,21.96c-.42-.34-.77-.75-1.06-1.23-.43-.71-.66-1.5-.75-2.35-.02-.19-.05-.37-.05-.56,0-.22.03-.44.06-.66.14-1,.54-1.87,1.07-2.67.43-.64.94-1.19,1.5-1.68.61-.53,1.26-1,1.93-1.45.68-.45,1.35-.91,1.98-1.44.55-.46,1.06-.98,1.51-1.57.57-.77.99-1.63,1.23-2.59.03-.1.06-.2.09-.3.01,0,.03.01.03.02.18.98.58,1.86,1.11,2.66.58.89,1.31,1.6,2.14,2.2.77.56,1.52,1.13,2.28,1.71.46.35.93.7,1.38,1.06.83.68,1.5,1.53,1.96,2.56.32.73.48,1.51.52,2.32.01.3-.04.59-.12.88-.14.55-.32,1.1-.57,1.6-.27.53-.61,1-1.01,1.42-.12.13-.13.13-.27.13.04-.33.08-.65.12-.97.05-.43.1-.86.16-1.29.15-1.07-.03-2.09-.5-3.03-.47-.93-1.15-1.61-2.02-2.04-.19-.09-.37-.18-.58-.21-.15-.02-.25.04-.31.18-.06.15-.05.26.07.38.06.06.13.11.2.16.34.24.66.52.95.83.44.49.79,1.05.99,1.72.14.48.21.97.2,1.46,0,.61-.07,1.22-.18,1.82-.18.93-.51,1.77-1.04,2.51-.47.66-1.07,1.11-1.82,1.3-.48.12-.96.15-1.44.02-.46-.12-.8-.41-.96-.91-.09-.29-.09-.59-.02-.88.25-1.03.77-1.84,1.61-2.38.47-.3.99-.48,1.53-.57.24-.04.49-.07.73-.12.17-.03.27-.16.27-.34,0-.22-.09-.35-.27-.39-.07-.01-.14,0-.2-.01-.07,0-.13-.02-.2-.03-.02,0-.05-.02-.07-.01-.1.05-.21.05-.32.05-.06,0-.12,0-.18,0-1.11.15-2.05.67-2.86,1.52-.41.43-.74.93-1.01,1.48-.06.13-.15.26-.23.4-.05-.06-.09-.11-.12-.16-.18-.31-.36-.62-.55-.92-.43-.7-.96-1.28-1.63-1.69-.59-.37-1.23-.59-1.9-.72-.18-.03-.36-.06-.54-.08-.19-.02-.37,0-.55.07-.26.09-.43.3-.54.56-.08.2.08.42.28.38.17-.03.33-.07.5-.09.32-.04.63,0,.95.08.7.17,1.31.54,1.82,1.09.39.42.68.92.82,1.51.03.13.07.25.1.38.07.34.05.67-.07.99-.13.34-.36.55-.66.68-.23.1-.47.14-.72.15-.99.02-1.82-.39-2.53-1.13-.27-.28-.48-.61-.63-.98-.29-.72-.53-1.46-.66-2.24-.16-1.01-.1-1.99.21-2.96.25-.75.68-1.36,1.27-1.81.32-.25.65-.48.97-.72.08-.06.16-.12.23-.19.05-.05.09-.1.11-.17.06-.13.01-.25-.11-.31-.11-.05-.21-.07-.33-.04-.41.09-.78.27-1.14.48-.38.22-.73.49-1.04.83-.33.36-.6.77-.8,1.23-.3.68-.46,1.4-.51,2.15-.01.18-.02.36-.02.54-.01.7.09,1.38.23,2.05.02.11.05.22.08.35-.04-.02-.06-.03-.08-.05M24.01,0c-.03.24-.06.48-.09.72-.04.36-.07.72-.13,1.08-.07.45-.15.89-.23,1.34-.11.62-.21,1.24-.35,1.85-.28,1.22-.83,2.28-1.61,3.19-.42.49-.89.91-1.39,1.29-.93.71-1.88,1.4-2.81,2.11-.79.6-1.55,1.24-2.22,2.02-.52.6-.95,1.27-1.24,2.05-.44,1.19-.5,2.4-.19,3.64.18.71.48,1.36.87,1.96.41.63.88,1.19,1.38,1.73.51.54,1.05,1.04,1.63,1.48.95.72,1.99,1.21,3.13,1.43.38.07.77.09,1.15.02.84-.16,1.48-.65,1.92-1.47.02-.05.06-.09.1-.15.14.27.3.5.46.72.21.27.45.49.74.65.59.32,1.22.39,1.86.32.77-.09,1.49-.37,2.18-.77.4-.23.78-.5,1.15-.78,1.04-.77,1.97-1.66,2.74-2.77.43-.63.79-1.3,1.05-2.04.21-.61.33-1.25.34-1.91,0-.6-.09-1.18-.26-1.74-.3-1-.85-1.83-1.52-2.55-.48-.52-1.01-.99-1.56-1.42-.73-.58-1.49-1.1-2.27-1.59-.76-.49-1.46-1.06-2.08-1.76-.58-.66-1.06-1.4-1.43-2.22-.38-.83-.62-1.71-.76-2.63-.19-1.23-.4-2.46-.51-3.71,0-.03-.01-.06-.02-.09h-.03Z"/>
    </clipPath>
    <linearGradient id="linear-gradient" x1="1963.36" y1="72.69" x2="1963.66" y2="72.69" gradientTransform="translate(140614.15 -5191.51) rotate(-180) scale(71.6 -71.6)" gradientUnits="userSpaceOnUse">
      <stop offset="0" stop-color="#cb9e83"/>
      <stop offset=".13" stop-color="#ddb789"/>
      <stop offset=".16" stop-color="#e2be8a"/>
      <stop offset=".33" stop-color="#fae9b3"/>
      <stop offset=".54" stop-color="#a77e51"/>
      <stop offset=".79" stop-color="#eeca82"/>
      <stop offset="1" stop-color="#9e7a4d"/>
    </linearGradient>
    <clipPath id="clippath-1">
      <path class="cls-1" d="M23.64,16.98c-.74-.46-1.17-1.15-1.27-2.08-.05-.5.06-.98.25-1.42.24-.56.51-1.11.77-1.66.17-.37.35-.73.52-1.1.03-.05.07-.1.11-.17.46.94.9,1.84,1.34,2.75.21.43.33.89.35,1.37,0,.19-.03.39-.07.58-.14.61-.46,1.09-.92,1.46-.13.1-.27.2-.42.28-.11.06-.21.09-.32.09-.11,0-.23-.04-.34-.11M23.93,7.48c-.04.16-.08.33-.12.5-.17.71-.39,1.4-.69,2.06-.23.51-.5,1-.77,1.48-.35.62-.7,1.25-.96,1.93-.19.5-.28,1.02-.23,1.55.06.75.35,1.38.83,1.89.32.34.68.64,1.08.86.6.34,1.21.35,1.82.03.39-.2.71-.5,1.02-.82.29-.3.52-.63.68-1.03.2-.49.33-1,.27-1.56-.06-.6-.23-1.16-.52-1.67-.3-.53-.59-1.05-.87-1.59-.56-1.07-1.07-2.16-1.32-3.38-.03-.16-.07-.31-.11-.46-.01,0-.02,0-.03,0-.02.07-.05.14-.07.21"/>
    </clipPath>
    <linearGradient id="linear-gradient-2" x1="1963.36" y1="72.76" x2="1963.66" y2="72.76" gradientTransform="translate(140613.94 -5197.19) rotate(-180) scale(71.6 -71.6)" xlink:href="#linear-gradient"/>
    <clipPath id="clippath-2">
      <path class="cls-1" d="M23.91,12.46c-.11.23-.22.46-.33.7-.14.3-.29.61-.42.92-.1.24-.15.49-.13.75.04.54.26.96.67,1.25.11.08.22.11.35.1.11,0,.2-.06.29-.12.6-.42.86-1.11.61-1.86-.08-.23-.19-.45-.3-.66-.2-.42-.41-.83-.63-1.27-.04.07-.08.14-.11.2"/>
    </clipPath>
    <linearGradient id="linear-gradient-3" x1="1963.36" y1="72.74" x2="1963.66" y2="72.74" gradientTransform="translate(140615.05 -5193.51) rotate(-180) scale(71.6 -71.6)" xlink:href="#linear-gradient"/>
  </defs>
  <g id="Layer_1-2" data-name="Layer 1">
    <g>
      <g>
        <g class="cls-8">
          <rect class="cls-5" x="7.31" y="-3.62" width="33.29" height="33.29" transform="translate(-2.19 20.75) rotate(-45)"/>
        </g>
        <g class="cls-6">
          <rect class="cls-4" x="18.13" y="6.81" width="11.76" height="11.76" transform="translate(-1.94 20.7) rotate(-45)"/>
        </g>
        <g class="cls-7">
          <rect class="cls-3" x="21.94" y="12.06" width="4.32" height="4.32" transform="translate(-3 21.21) rotate(-45)"/>
        </g>
      </g>
      <path class="cls-2" d="M80.34,41.47c-.69-.42-.69-.96-.72-1.7-.19-4.01.32-8.23.07-12.23-.2-3.16-2.07-4.69-5.24-4.09-1.51.29-2.56,1.06-3.47,2.26-.17.22-.18.5-.52.47l-.04-10.13h0c-.22,0-2.66,1.39-3.06,1.58-.72.33-1.58.63-2.35.83-.15.04-.38,0-.5.09.03.17.04.34.02.5.14.08.4-.03.62,0,.45.05.93.44.93.92v20.95c-.08.72-.02,1.12-.7,1.52-.7.41-1.59.34-1.95-.46-.18-.39-.2-1.29-.21-1.76-.15-3.74.18-7.61,0-11.34-.07-1.5-.3-2.75-1.79-3.43-3.39-1.57-11.74.63-11,5.46.28,1.77,2.42,2.02,3.61.97.68-.59.78-1.75.54-2.58-.23-.79-.87-1.32-.19-2.17,1.29-1.61,4.31-1.59,4.55.92.47,4.8-5.16,5.45-7.6,8.57-1.57,2-2.5,6.02-.06,7.69,2.24,1.53,5.37.2,7.06-1.58.12-.13.47-.74.66-.57.06.67.39,1.57,1.18,1.59,3.96-.44,7.9-.96,11.88-1.17l.09-.45-.1-.12c-1.08.19-1.51-.48-1.59-1.47-.28-3.43.21-7.23,0-10.7.14-.48.06-.95.15-1.44.25-1.42,1.33-3.02,2.95-2.85,1.34.14,1.63,1.46,1.69,2.58.23,4.06-.17,8.33,0,12.41-.1.49-.34,1.06-.84,1.26-.39.16-.93,0-.81.62l7.89-.25v-.51c-.43,0-.74.06-1.12-.18M58.93,40.02c0,1.41-1.23,2.69-2.64,2.69-2.82,0-2.46-4.27-1.64-6.01.59-1.24,1.49-1.91,2.37-2.85.51-.55,1.01-1.19,1.53-1.72.1-.11.23-.28.38-.29v8.18Z"/>
      <path class="cls-2" d="M46.96,28.24c.16,4.61-.2,9.35,0,13.95.05,1.14.12,2.54,1.57,2.64.37.03.65-.14,1-.13-.01.19.01.38.07.55-.1.15-.32.18-.65.25-2.76.66-6.24,1.28-6.31-2.67v-13.93s-.34-.24-.34-.24c-.81.14-1.62.3-2.43.44-.28.05-1.22.11-1.4.26-.09.08-.1.18-.09.29,0,4.12.01,8.24,0,12.36,0,2.87.27,5.85-.59,8.63-.61,1.98-1.75,3.72-3.25,5.06-1.49,1.34-3.35,2.28-5.39,2.67,0-.01-.02-.02-.03-.04.05-.18.07-.36.05-.55.27-.11.55-.22.65-.27,3.47-1.75,3.96-6.05,4.23-9.52v-17.7s-.09-.17-.09-.17c-.61-.14-1.29.19-1.93.15-.19-.08-.15-.67-.13-.87l.09-.1c.16-.03.33.01.49-.02.29-.05,1.44-.17,1.54-.38.03-2.35-.01-4.57,1.14-6.68,1.27-2.32,4.25-3.92,6.88-4.01,4.14-.15,4.29,6.02.26,5.47-1.41-.19-1.4-2.27-.71-3.18.29-.38,1.24-.8.54-1.3-.61-.44-1.76.09-2.23.57-1.74,1.77-1.56,5.66-1.47,7.95.01.32-.27.52.35.49.9-.06,2.64-.43,3.45-.82,2.06-1,3.54-3.09,4.25-5.23.1-.1.49-.21.53-.03l-.03,4.55c.09.09.19.12.31.12.48,0,1.39-.29,1.92-.37.13-.02.28,0,.42-.02.15-.02.46-.23.59-.05.03.04-.05.96-.1.99l-2.74.44c-.25.06-.44.16-.44.45"/>
      <path class="cls-2" d="M6.53,42.71c.12-.17.89-.09,1.12-.11,6.72-.59,10.17-3.98,10.03-10.92-.09-4.52-3.07-6.88-7.48-6.72-3.09.11-6.19.42-9.29.32-.19,0-.55-.14-.71-.05-.01.23-.07.45-.19.64.93.15,1.85.26,1.96,1.4v22.09c-.06.62-.58,1.29-1.19,1.42-.26.05-.47,0-.59.05,0,.17-.01.34-.07.51,0,0,0,.02,0,.03h4.3c.5,0,2.45.05,3.63-.09.2-.02.45-.08.45-.08,0-.02-.07-.17-.07-.19-.05-.13-.08-.27-.1-.4h-.8c-.25,0-.82-.41-.91-.68-.09-.3-.13-1.1-.14-1.45-.08-1.62-.12-3.88,0-5.48,0-.11.01-.21.06-.31M6.42,27.11c0-.1.05-.56.07-.63.13-.44,1-.46,1.37-.47,3.29-.12,4.42,2.2,4.79,5.11.35,2.78-.27,7.85-2.54,9.74-.9.75-1.72.77-2.83.8-.49.01-.73.27-.8-.48.13-4.68-.14-9.39-.06-14.06"/>
      <path class="cls-2" d="M32.66,47.57c-.93.13-1.4-.39-1.54-1.26-.16-4.16.17-8.51-.07-12.66-.12-2.11-1.04-3.34-3.22-3.52-2.93-.25-7.74.64-9.14,3.58-.81,1.71-.41,4.24,1.99,3.83,1.48-.25,2.23-1.45,1.88-2.9-.24-1-1.07-1.36-.23-2.44,1.06-1.36,3.79-1.44,4.38.46,1.46,4.73-5.07,6.08-7.43,8.83-2.92,3.41-2.14,9.64,3.44,8.4,1-.22,1.99-.77,2.77-1.44.33-.28.9-1.05,1.14-1.21.08-.05.13-.08.22-.06.08.76.36,1.62,1.24,1.72,1.35-.26,2.77-.43,4.11-.73.34-.08.8-.19.46-.6M26.78,44.99c-.11,1.5-1.1,2.8-2.7,2.84-2.48.06-2.34-3.6-1.85-5.23.63-2.11,2.13-3.09,3.59-4.56.17-.17.68-.85.83-.89l.13.07v7.77Z"/>
      <path class="cls-2" d="M45.54,50.35c-.91-.19-.74-1.78.19-1.95,1.46-.27,1.43,2.28-.19,1.95"/>
      <path class="cls-2" d="M47.98,50.21c-1.02-.2-.81-1.75.05-1.93,1.64-.34,1.37,2.22-.05,1.93"/>
      <path class="cls-2" d="M54.27,47.58c1.09-.15,1.29,1.62.13,1.92-1.4.37-1.39-1.74-.13-1.92"/>
      <path class="cls-2" d="M56.69,47.26c1.1-.06,1.22,1.69.02,1.93-1.4.28-1.3-1.86-.02-1.93"/>
      <path class="cls-2" d="M65.23,45.96c1.09-.06,1.21,1.69.02,1.93-1.4.28-1.29-1.86-.02-1.93"/>
      <path class="cls-2" d="M73.39,58.62c-.07.01-.13.02-.18.02h-.11c-1.09-.05-.91-1.89.27-1.95,1.09-.06,1.21,1.69.02,1.93"/>
      <path class="cls-2" d="M73.83,48.39v4.23c0,1.04-1.03,2.36-2.14,2.38l-2.63.26c-.02-.19.06-.36.07-.54.06-1.54-.16-3.35,0-4.83.08-.79.39-.9,1.13-1,0-.1.07-.28-.09-.25-2.56.43-5.51.32-7.66,1.95-2.02,1.53-2.24,4.51.44,5.37l-.11.11c-2.18.21-4.35.51-6.51.84l.07-5.31c.07-.55.54-.85,1.08-.8l-.03-.25-2.96.38-.06,6.24-3.5.38c-.05-.29.06-.59.07-.86.04-1.35-.15-3.02.02-4.31.09-.66.47-.92,1.13-.88v-.25l-4.98.53c-2.02.35-4.18,1.41-4.38,3.67,0,.06,0,.13,0,.19.1.4.13.73.33,1.1.74,1.36,2.47,1.8,3.91,1.76,1.62-.04,3.52-.32,5.15-.51,6.89-.8,13.75-1.96,20.67-2.5,1.42-.27,2.72-1.84,2.85-3.26.07-.72-.17-3.09.22-3.54.21-.24.63-.27.93-.25v-.25l-2.99.19ZM49.06,57.71c-.02.08-.08.09-.15.11-.66.12-1.44.05-2.11.19-2.2-.09-2.8-2.75-1.58-4.32.64-.83,1.78-1.29,2.82-1.33.22,0,.74.01.93.05.07.01.13.03.15.1l-.07,5.2ZM67.21,55.42c-1.01.21-1.99.45-2.99.07-1.83-.68-1.75-3.25-.54-4.49.42-.43,1.76-1.15,2.35-1.15h1.24l-.06,5.56Z"/>
    </g>
  </g>
</svg>